<svg width="512" height="512" viewBox="0 0 512 512" fill="none" xmlns="http://www.w3.org/2000/svg">
  <g clip-path="url(#clip0_4043_9300)">
    <g opacity="0.20">
      <path
        d="M95.7921 95.7862C173.965 17.6137 295.823 9.10393 383.509 70.253C376.731 69.635 370.175 73.7029 367.932 80.4367C365.312 88.2955 369.558 96.7902 377.417 99.4101L441.055 120.622C446.422 122.412 452.371 121.033 456.405 116.999C460.423 112.982 461.825 107.039 460.029 101.649L438.816 38.011C436.196 30.1533 427.705 25.9024 419.843 28.5253C411.984 31.1452 407.737 39.639 410.357 47.4987L412.73 54.6185C312.737 -24.312 166.825 -17.6722 74.5797 74.5739C40.9848 108.168 17.5255 150.319 6.73683 196.466C-3.74584 241.311 -1.9679 288.192 11.8807 332.042C14.3756 339.943 22.8033 344.322 30.7011 341.829C38.6008 339.334 42.9817 330.908 40.4878 323.008C15.0356 242.418 36.2269 155.351 95.7921 95.7862ZM256 90.9994C165.022 90.9994 91.0052 165.016 91.0052 255.994C91.0052 346.972 165.022 420.989 256 420.989C346.978 420.989 420.995 346.972 420.995 255.994C420.995 165.016 346.978 90.9994 256 90.9994ZM256 390.99C181.563 390.99 121.004 330.431 121.004 255.994C121.004 181.558 181.563 120.998 256 120.998C330.437 120.998 390.996 181.558 390.996 255.994C390.996 330.431 330.437 390.99 256 390.99ZM500.119 179.946C497.624 172.046 489.199 167.664 481.299 170.159C473.399 172.654 469.018 181.08 471.512 188.979C496.964 269.571 475.772 356.637 416.207 416.201C338.033 494.375 216.176 502.884 128.489 441.734C135.267 442.352 141.823 438.285 144.067 431.551C146.686 423.692 142.44 415.197 134.581 412.577L70.9428 391.365C65.552 389.567 59.6112 390.971 55.5933 394.989C51.5754 399.006 50.1735 404.949 51.9694 410.338L73.1818 473.976C75.8067 481.849 84.3114 486.079 92.1552 483.462C100.014 480.842 104.261 472.348 101.641 464.489L99.268 457.369C145.376 493.765 201.24 511.979 257.112 511.979C322.41 511.979 387.708 487.124 437.418 437.414C471.013 403.82 494.473 361.669 505.261 315.521C515.746 270.678 513.967 223.796 500.119 179.946Z"
        fill="url(#paint0_linear_4043_9300)" />
    </g>
    <path
      d="M255.999 347.977C306.901 347.977 348.164 306.713 348.164 255.812C348.164 204.91 306.901 163.646 255.999 163.646C205.098 163.646 163.834 204.91 163.834 255.812C163.834 306.713 205.098 347.977 255.999 347.977Z"
      fill="url(#paint1_linear_4043_9300)" />
    <path
      d="M256 314.461C260.631 314.461 264.379 310.714 264.379 306.083V296.161C274.11 292.691 281.136 283.477 281.136 272.568C281.136 258.707 269.861 247.432 256 247.432C251.385 247.432 247.622 243.676 247.622 239.053C247.622 234.431 251.385 230.675 256 230.675C258.651 230.675 261.106 231.902 262.71 234.038C265.525 237.745 270.777 238.456 274.443 235.691C278.142 232.909 278.878 227.656 276.096 223.957C273.066 219.922 268.958 217.131 264.379 215.51V205.539C264.379 200.908 260.631 197.16 256 197.16C251.369 197.16 247.622 200.908 247.622 205.539V215.461C237.89 218.931 230.864 228.144 230.864 239.053C230.864 252.914 242.14 264.189 256 264.189C260.615 264.189 264.379 267.945 264.379 272.568C264.379 279.842 253.709 283.459 249.291 277.583C246.492 273.869 241.223 273.165 237.557 275.931C233.859 278.712 233.123 283.966 235.904 287.664C238.935 291.699 243.042 294.491 247.622 296.111V306.083C247.622 310.714 251.369 314.461 256 314.461Z"
      fill="#FFEFB1" />
    <path
      d="M166.566 166.384C210.25 122.685 278.336 118.059 327.322 152.285C323.536 151.925 319.841 154.043 318.576 157.81C317.12 162.203 319.493 166.949 323.878 168.414L359.438 180.253C362.305 181.227 365.665 180.568 368.014 178.232C370.256 175.99 371.041 172.668 370.043 169.657L358.195 134.105C356.722 129.712 351.96 127.371 347.591 128.811C343.205 130.267 340.832 135.014 342.289 139.407L343.665 143.526C287.801 99.3624 206.277 102.977 154.718 154.536C117.014 192.24 103.595 247.348 119.698 298.348C121.105 302.803 125.83 305.194 130.204 303.822C134.622 302.423 137.061 297.718 135.67 293.308C121.465 248.281 133.296 199.654 166.566 166.384ZM392.303 213.273C390.912 208.862 386.232 206.457 381.797 207.799C377.378 209.198 374.94 213.903 376.331 218.313C390.536 263.34 378.704 311.967 345.434 345.237C301.75 388.936 233.665 393.563 184.679 359.336C188.472 359.698 192.159 357.587 193.424 353.811C194.881 349.418 192.508 344.672 188.122 343.207L152.562 331.368C149.551 330.353 146.245 331.163 143.987 333.389C141.745 335.631 140.959 338.953 141.958 341.964L153.806 377.516C155.269 381.875 159.991 384.282 164.41 382.81C168.796 381.354 171.168 376.608 169.712 372.214L168.336 368.095C194.11 388.471 225.313 398.741 256.558 398.741C293.035 398.741 329.511 384.855 357.282 357.085C394.987 319.381 408.406 264.273 392.303 213.273Z"
      fill="url(#paint2_linear_4043_9300)" />
  </g>
  <defs>
    <linearGradient id="paint0_linear_4043_9300" x1="256" y1="511.98" x2="256" y2="0.0172119"
      gradientUnits="userSpaceOnUse">
      <stop stop-color="#F07342" />
      <stop offset="1" stop-color="#FA9F29" />
    </linearGradient>
    <linearGradient id="paint1_linear_4043_9300" x1="255.999" y1="347.977" x2="255.999" y2="163.646"
      gradientUnits="userSpaceOnUse">
      <stop stop-color="#FD5900" />
      <stop offset="1" stop-color="#FFDE00" />
    </linearGradient>
    <linearGradient id="paint2_linear_4043_9300" x1="161.5" y1="382.5" x2="352.5" y2="129.5"
      gradientUnits="userSpaceOnUse">
      <stop stop-color="#FFA423" />
      <stop offset="1" stop-color="#FFE349" />
    </linearGradient>
    <clipPath id="clip0_4043_9300">
      <rect width="512" height="512" fill="white" />
    </clipPath>
  </defs>
</svg>
