<?xml version="1.0" standalone="no"?>
<!DOCTYPE svg PUBLIC "-//W3C//DTD SVG 20010904//EN"
 "http://www.w3.org/TR/2001/REC-SVG-20010904/DTD/svg10.dtd">
<svg version="1.0" xmlns="http://www.w3.org/2000/svg"
 width="1017.000000pt" height="1017.000000pt" viewBox="0 0 1017.000000 1017.000000"
 preserveAspectRatio="xMidYMid meet">
<metadata>
Created by potrace 1.14, written by Peter Selinger 2001-2017
</metadata>
<g transform="translate(0.000000,1017.000000) scale(0.100000,-0.100000)"
fill="#000000" stroke="none">
<path d="M4818 9986 c-1 -2 -68 -6 -148 -10 -136 -5 -369 -28 -434 -42 -16 -3
-43 -14 -60 -24 -17 -10 -56 -21 -86 -25 -70 -9 -358 -82 -515 -130 -66 -21
-128 -40 -137 -42 -10 -3 -18 -8 -18 -12 0 -3 36 -71 79 -151 80 -148 101
-216 28 -93 -70 117 -92 141 -132 139 -19 0 -35 -4 -35 -8 0 -5 -12 -8 -27 -8
-14 0 -35 -8 -45 -17 -10 -9 -26 -17 -36 -18 -9 -1 -24 -5 -32 -8 -13 -5 -42
-10 -107 -19 -7 -1 -13 -5 -13 -10 0 -4 -3 -7 -7 -6 -13 3 -57 -14 -85 -33
-14 -11 -33 -19 -42 -19 -9 0 -16 -4 -16 -10 0 -5 -12 -13 -27 -16 -16 -4 -31
-11 -34 -16 -3 -5 -16 -10 -27 -11 -12 -1 -22 -5 -22 -10 0 -4 -4 -6 -9 -3 -4
3 -17 -1 -27 -9 -10 -8 -26 -15 -36 -15 -9 0 -18 -3 -20 -8 -3 -8 -110 -73
-198 -120 -106 -56 -125 -67 -130 -74 -10 -13 -76 -54 -117 -72 -24 -11 -43
-23 -43 -28 0 -4 -7 -8 -15 -8 -8 0 -15 -4 -15 -9 0 -5 -17 -20 -37 -32 -45
-28 -59 -38 -81 -61 -9 -10 -22 -18 -29 -18 -7 0 -13 -4 -13 -10 0 -5 -14 -17
-31 -25 -17 -9 -63 -44 -102 -78 -40 -34 -99 -84 -132 -112 -91 -76 -244 -226
-374 -365 -117 -128 -125 -136 -195 -225 -22 -28 -44 -55 -50 -60 -33 -31
-215 -292 -306 -440 -115 -187 -317 -572 -305 -583 3 -3 55 -8 115 -10 60 -3
107 -8 104 -13 -3 -5 -57 -9 -120 -9 l-115 0 -15 -37 c-8 -21 -19 -47 -24 -58
-25 -53 -73 -186 -123 -340 -247 -758 -303 -1584 -161 -2375 46 -256 165 -691
200 -731 8 -8 14 -26 14 -39 0 -65 227 -566 365 -805 325 -564 799 -1094 1335
-1492 1304 -969 3001 -1230 4548 -698 899 309 1698 884 2292 1650 218 281 448
666 575 960 26 61 63 142 81 180 184 394 341 1142 339 1618 0 37 4 67 9 67 13
0 0 431 -19 615 -38 376 -127 770 -245 1085 -17 46 -33 86 -35 88 -2 2 -18
-18 -36 -44 -40 -59 -49 -43 -14 25 l26 52 -18 52 c-10 29 -21 54 -24 57 -3 3
-16 31 -28 63 -12 32 -50 116 -86 186 -36 70 -65 130 -65 133 0 11 -93 173
-102 176 -4 2 -8 9 -8 15 0 6 -10 22 -22 35 -13 14 -16 21 -8 17 13 -8 13 -6
1 8 -7 9 -18 14 -25 10 -6 -4 -5 1 3 10 8 10 9 17 3 17 -6 0 -28 37 -50 83
-38 80 -108 197 -135 227 -8 8 -37 49 -64 90 -28 42 -58 82 -67 89 -9 7 -16
19 -16 26 0 8 -3 15 -7 17 -9 3 -46 49 -78 94 -11 15 -31 42 -45 59 -14 16
-31 42 -37 56 -6 15 -21 38 -33 50 -12 13 -47 56 -78 94 -31 39 -105 125 -166
193 -106 119 -110 122 -132 108 -21 -15 -25 -13 -76 39 -29 29 -58 60 -64 67
-18 21 -116 108 -123 108 -3 0 -19 12 -36 28 -16 15 -47 38 -67 52 -21 14 -38
28 -38 33 0 4 -6 7 -13 7 -7 0 -24 11 -39 25 -15 14 -30 25 -35 25 -4 0 -19
11 -33 25 -25 24 -26 24 -303 31 -152 4 -276 8 -275 9 7 6 229 14 376 15 89 0
162 4 162 9 0 9 -208 136 -369 226 -223 124 -542 267 -781 350 l-105 36 -15
-21 c-8 -12 -45 -72 -82 -133 -37 -62 -72 -117 -78 -124 -5 -7 -10 -17 -10
-23 0 -5 -4 -10 -10 -10 -5 0 -10 1 -10 3 0 1 36 68 80 147 44 80 80 150 80
156 0 6 -17 16 -37 22 -21 6 -78 22 -128 35 -49 14 -103 27 -120 30 -16 3 -84
17 -150 32 -128 29 -338 65 -344 60 -4 -5 59 -129 129 -250 64 -113 75 -136
57 -129 -7 2 -43 59 -82 126 -96 166 -152 251 -167 254 -54 8 -248 26 -368 34
-128 9 -483 13 -492 6z m-2520 -3693 l-3 -1328 -247 -3 -248 -2 0 1289 0 1289
93 17 c230 41 364 63 385 64 l22 1 -2 -1327z m5522 887 l0 -300 270 0 270 0 0
-215 0 -215 -270 0 -270 0 0 -451 c0 -328 3 -463 12 -493 16 -52 72 -108 124
-124 62 -18 226 -15 317 7 l77 18 0 -208 0 -208 -37 -10 c-91 -24 -141 -32
-276 -41 -215 -15 -338 8 -479 91 -98 57 -163 140 -210 265 -22 58 -23 68 -26
606 l-3 548 -192 2 -192 3 -3 213 -2 212 195 0 195 0 0 245 0 245 23 5 c159
39 446 103 460 104 16 1 17 -20 17 -299z m-4025 -281 c198 -32 388 -131 535
-278 250 -250 346 -624 249 -971 -77 -277 -299 -529 -564 -639 -155 -65 -211
-75 -415 -75 -172 0 -191 2 -275 28 -365 110 -619 374 -707 733 -25 103 -30
310 -9 408 75 360 306 629 644 750 168 60 351 75 542 44z m2235 -1 c432 -72
768 -434 809 -870 30 -315 -68 -591 -288 -808 -134 -133 -281 -215 -467 -262
-129 -32 -371 -32 -497 0 -490 124 -807 565 -757 1052 5 56 13 106 16 111 3 6
39 -21 79 -59 90 -86 188 -137 308 -160 85 -17 87 -18 87 -46 0 -15 7 -56 16
-90 49 -189 209 -347 392 -385 268 -56 534 115 607 389 19 72 19 230 0 305
-42 161 -188 325 -325 366 l-36 11 -1 81 c-1 45 -9 111 -18 146 -17 66 -76
194 -95 206 -5 3 -10 13 -10 21 0 16 53 13 180 -8z m-515 -27 c75 -37 147
-111 183 -189 24 -50 27 -69 27 -157 0 -88 -3 -107 -27 -157 -92 -197 -325
-281 -512 -186 -61 31 -139 111 -172 175 -27 54 -29 66 -29 168 0 101 2 114
29 167 51 100 150 182 253 208 70 17 179 5 248 -29z m-1965 -2359 l55 -18 3
-223 2 -223 -22 5 c-13 3 -50 13 -83 21 -86 22 -228 21 -306 -4 -110 -33 -207
-108 -270 -208 l-29 -46 0 -618 0 -618 -250 0 -250 0 0 955 0 955 250 0 250 0
0 -100 0 -99 68 68 c74 73 170 129 272 155 77 21 241 19 310 -2z m3678 -13
c230 -58 411 -230 493 -465 l34 -99 3 -682 3 -683 -73 0 c-40 0 -151 3 -245 7
l-173 6 0 581 c0 643 -1 651 -63 754 -126 210 -471 230 -662 38 l-55 -55 0
-660 0 -661 -245 0 -245 0 0 955 0 955 248 -2 247 -3 3 -73 3 -73 37 29 c93
74 243 135 372 152 87 11 229 2 318 -21z m-2886 -336 c2 -181 1 -431 -1 -558
-2 -142 1 -257 9 -300 22 -135 83 -227 188 -283 160 -85 398 -46 532 87 l50
50 0 666 0 665 250 0 250 0 0 -955 0 -955 -250 0 -250 0 0 70 c0 39 -3 70 -6
70 -3 0 -26 -16 -52 -36 -119 -91 -289 -144 -460 -144 -362 0 -619 189 -724
532 -22 72 -22 83 -26 746 l-3 672 246 0 245 0 2 -327z"/>
<path d="M3450 6447 c-205 -70 -332 -229 -360 -453 -36 -282 132 -541 395
-609 266 -68 546 105 620 385 19 71 19 230 0 303 -46 177 -185 325 -353 377
-90 28 -216 27 -302 -3z"/>
</g>
</svg>
